<mxfile host="app.diagrams.net" modified="2023-08-24T11:19:10.903Z" agent="Mozilla/5.0 (Macintosh; Intel Mac OS X 10_15_7) AppleWebKit/537.36 (KHTML, like Gecko) Chrome/116.0.0.0 Safari/537.36" etag="8O2tq15RUOeJDLf1v06K" version="21.6.8" type="github">
  <diagram name="Page-1" id="e7e014a7-5840-1c2e-5031-d8a46d1fe8dd">
    <mxGraphModel dx="831" dy="703" grid="1" gridSize="10" guides="1" tooltips="1" connect="1" arrows="1" fold="1" page="1" pageScale="1" pageWidth="1169" pageHeight="826" background="none" math="0" shadow="0">
      <root>
        <mxCell id="0" />
        <mxCell id="1" parent="0" />
        <mxCell id="2" value="用户" style="swimlane;whiteSpace=wrap" parent="1" vertex="1">
          <mxGeometry x="164.5" y="128" width="280" height="570" as="geometry" />
        </mxCell>
        <mxCell id="IQuTiB4CpLmrbH2Nv3R--63" value="" style="ellipse;shape=startState;fillColor=#000000;strokeColor=none;" vertex="1" parent="2">
          <mxGeometry x="115.5" y="42" width="30" height="30" as="geometry" />
        </mxCell>
        <mxCell id="IQuTiB4CpLmrbH2Nv3R--64" value="" style="edgeStyle=elbowEdgeStyle;elbow=horizontal;verticalAlign=bottom;endArrow=open;endSize=8;strokeColor=#FF0000;endFill=1;rounded=0" edge="1" parent="2" source="IQuTiB4CpLmrbH2Nv3R--63" target="IQuTiB4CpLmrbH2Nv3R--65">
          <mxGeometry x="100" y="40" as="geometry">
            <mxPoint x="15" y="200" as="targetPoint" />
          </mxGeometry>
        </mxCell>
        <mxCell id="IQuTiB4CpLmrbH2Nv3R--65" value="注册并登录" style="" vertex="1" parent="2">
          <mxGeometry x="75.5" y="102" width="110" height="50" as="geometry" />
        </mxCell>
        <mxCell id="IQuTiB4CpLmrbH2Nv3R--67" value="" style="rhombus;whiteSpace=wrap;html=1;fontColor=#000000;fillColor=#ffffc0;strokeColor=#ff0000;" vertex="1" parent="2">
          <mxGeometry x="93" y="182" width="75" height="40" as="geometry" />
        </mxCell>
        <mxCell id="IQuTiB4CpLmrbH2Nv3R--68" value="no" style="edgeStyle=orthogonalEdgeStyle;html=1;align=left;verticalAlign=bottom;endArrow=open;endSize=8;strokeColor=#ff0000;rounded=0;entryX=1;entryY=0.5;entryDx=0;entryDy=0;exitX=1;exitY=0.5;exitDx=0;exitDy=0;" edge="1" parent="2" source="IQuTiB4CpLmrbH2Nv3R--67" target="IQuTiB4CpLmrbH2Nv3R--65">
          <mxGeometry x="-1" relative="1" as="geometry">
            <mxPoint x="265.5" y="282" as="targetPoint" />
            <Array as="points">
              <mxPoint x="225.5" y="202" />
              <mxPoint x="225.5" y="127" />
            </Array>
          </mxGeometry>
        </mxCell>
        <mxCell id="IQuTiB4CpLmrbH2Nv3R--69" value="yes" style="edgeStyle=orthogonalEdgeStyle;html=1;align=left;verticalAlign=top;endArrow=open;endSize=8;strokeColor=#ff0000;rounded=0;entryX=0.5;entryY=0;entryDx=0;entryDy=0;" edge="1" parent="2" source="IQuTiB4CpLmrbH2Nv3R--67" target="IQuTiB4CpLmrbH2Nv3R--71">
          <mxGeometry x="-1" relative="1" as="geometry">
            <mxPoint x="125.5" y="362" as="targetPoint" />
            <Array as="points">
              <mxPoint x="130.5" y="272" />
            </Array>
            <mxPoint as="offset" />
          </mxGeometry>
        </mxCell>
        <mxCell id="IQuTiB4CpLmrbH2Nv3R--70" value="" style="edgeStyle=elbowEdgeStyle;elbow=horizontal;verticalAlign=bottom;endArrow=open;endSize=8;strokeColor=#FF0000;endFill=1;rounded=0;entryX=0.5;entryY=0;entryDx=0;entryDy=0;exitX=0.5;exitY=1;exitDx=0;exitDy=0;" edge="1" parent="2" source="IQuTiB4CpLmrbH2Nv3R--65" target="IQuTiB4CpLmrbH2Nv3R--67">
          <mxGeometry x="100" y="40" as="geometry">
            <mxPoint x="130" y="282" as="targetPoint" />
            <mxPoint x="130" y="202" as="sourcePoint" />
          </mxGeometry>
        </mxCell>
        <mxCell id="IQuTiB4CpLmrbH2Nv3R--71" value="创建密钥对" style="" vertex="1" parent="2">
          <mxGeometry x="75.5" y="272" width="110" height="50" as="geometry" />
        </mxCell>
        <mxCell id="IQuTiB4CpLmrbH2Nv3R--72" value="创建授权策略" style="" vertex="1" parent="2">
          <mxGeometry x="75.5" y="372" width="110" height="50" as="geometry" />
        </mxCell>
        <mxCell id="IQuTiB4CpLmrbH2Nv3R--73" value="" style="edgeStyle=elbowEdgeStyle;elbow=horizontal;verticalAlign=bottom;endArrow=open;endSize=8;strokeColor=#FF0000;endFill=1;rounded=0;entryX=0.5;entryY=0;entryDx=0;entryDy=0;exitX=0.5;exitY=1;exitDx=0;exitDy=0;" edge="1" parent="2" source="IQuTiB4CpLmrbH2Nv3R--71" target="IQuTiB4CpLmrbH2Nv3R--72">
          <mxGeometry x="100" y="40" as="geometry">
            <mxPoint x="140.5" y="192" as="targetPoint" />
            <mxPoint x="140.5" y="162" as="sourcePoint" />
          </mxGeometry>
        </mxCell>
        <mxCell id="3" value="第三方应用" style="swimlane;whiteSpace=wrap" parent="1" vertex="1">
          <mxGeometry x="444.5" y="128" width="280" height="570" as="geometry" />
        </mxCell>
        <mxCell id="IQuTiB4CpLmrbH2Nv3R--77" value="访问资源授权接口" style="" vertex="1" parent="3">
          <mxGeometry x="55.5" y="92" width="110" height="50" as="geometry" />
        </mxCell>
        <mxCell id="IQuTiB4CpLmrbH2Nv3R--78" value="" style="rhombus;whiteSpace=wrap;html=1;fontColor=#000000;fillColor=#ffffc0;strokeColor=#ff0000;" vertex="1" parent="3">
          <mxGeometry x="73" y="172" width="75" height="40" as="geometry" />
        </mxCell>
        <mxCell id="IQuTiB4CpLmrbH2Nv3R--79" value="no" style="edgeStyle=orthogonalEdgeStyle;html=1;align=left;verticalAlign=bottom;endArrow=open;endSize=8;strokeColor=#ff0000;rounded=0;entryX=1;entryY=0.5;entryDx=0;entryDy=0;exitX=1;exitY=0.5;exitDx=0;exitDy=0;" edge="1" parent="3" source="IQuTiB4CpLmrbH2Nv3R--78" target="IQuTiB4CpLmrbH2Nv3R--83">
          <mxGeometry x="-1" relative="1" as="geometry">
            <mxPoint x="245.5" y="272" as="targetPoint" />
            <Array as="points">
              <mxPoint x="270.5" y="192" />
              <mxPoint x="270.5" y="442" />
            </Array>
          </mxGeometry>
        </mxCell>
        <mxCell id="IQuTiB4CpLmrbH2Nv3R--80" value="" style="edgeStyle=elbowEdgeStyle;elbow=horizontal;verticalAlign=bottom;endArrow=open;endSize=8;strokeColor=#FF0000;endFill=1;rounded=0;entryX=0.5;entryY=0;entryDx=0;entryDy=0;exitX=0.5;exitY=1;exitDx=0;exitDy=0;" edge="1" parent="3" source="IQuTiB4CpLmrbH2Nv3R--77" target="IQuTiB4CpLmrbH2Nv3R--78">
          <mxGeometry x="-180" y="40" as="geometry">
            <mxPoint x="110" y="272" as="targetPoint" />
            <mxPoint x="110" y="192" as="sourcePoint" />
          </mxGeometry>
        </mxCell>
        <mxCell id="IQuTiB4CpLmrbH2Nv3R--81" value="yes" style="edgeStyle=orthogonalEdgeStyle;html=1;align=left;verticalAlign=top;endArrow=open;endSize=8;strokeColor=#ff0000;rounded=0;exitX=0.5;exitY=1;exitDx=0;exitDy=0;" edge="1" parent="3" source="IQuTiB4CpLmrbH2Nv3R--78">
          <mxGeometry x="-1" relative="1" as="geometry">
            <mxPoint x="110.5" y="287" as="targetPoint" />
            <mxPoint x="-124.5" y="227" as="sourcePoint" />
            <Array as="points">
              <mxPoint x="110.5" y="277" />
            </Array>
            <mxPoint as="offset" />
          </mxGeometry>
        </mxCell>
        <mxCell id="IQuTiB4CpLmrbH2Nv3R--82" value="访问资源" style="" vertex="1" parent="3">
          <mxGeometry x="55.5" y="287" width="110" height="50" as="geometry" />
        </mxCell>
        <mxCell id="IQuTiB4CpLmrbH2Nv3R--83" value="" style="ellipse;shape=endState;fillColor=#000000;strokeColor=#ff0000" vertex="1" parent="3">
          <mxGeometry x="95.5" y="427" width="30" height="30" as="geometry" />
        </mxCell>
        <mxCell id="IQuTiB4CpLmrbH2Nv3R--84" value="" style="edgeStyle=elbowEdgeStyle;elbow=horizontal;verticalAlign=bottom;endArrow=open;endSize=8;strokeColor=#FF0000;endFill=1;rounded=0;entryX=0.5;entryY=0;entryDx=0;entryDy=0;exitX=0.5;exitY=1;exitDx=0;exitDy=0;" edge="1" parent="3" source="IQuTiB4CpLmrbH2Nv3R--82" target="IQuTiB4CpLmrbH2Nv3R--83">
          <mxGeometry x="-180" y="40" as="geometry">
            <mxPoint x="-125" y="477" as="targetPoint" />
            <mxPoint x="-125" y="427" as="sourcePoint" />
          </mxGeometry>
        </mxCell>
        <mxCell id="IQuTiB4CpLmrbH2Nv3R--89" value="" style="edgeStyle=elbowEdgeStyle;elbow=horizontal;verticalAlign=bottom;endArrow=open;endSize=8;strokeColor=#FF0000;endFill=1;rounded=0;entryX=0;entryY=0.5;entryDx=0;entryDy=0;exitX=1;exitY=0.5;exitDx=0;exitDy=0;" edge="1" parent="1" source="IQuTiB4CpLmrbH2Nv3R--72" target="IQuTiB4CpLmrbH2Nv3R--77">
          <mxGeometry x="100" y="40" as="geometry">
            <mxPoint x="305.5" y="510" as="targetPoint" />
            <mxPoint x="305.5" y="460" as="sourcePoint" />
          </mxGeometry>
        </mxCell>
      </root>
    </mxGraphModel>
  </diagram>
</mxfile>
